<?xml version="1.0" encoding="utf-8"?>
<!-- Generator: Adobe Illustrator 24.0.1, SVG Export Plug-In . SVG Version: 6.00 Build 0)  -->
<svg version="1.1" id="Layer_1" xmlns="http://www.w3.org/2000/svg" xmlns:xlink="http://www.w3.org/1999/xlink" x="0px" y="0px"
	 viewBox="0 0 851.7 582.3" style="enable-background:new 0 0 851.7 582.3;" xml:space="preserve">
<style type="text/css">
	.st0{fill-rule:evenodd;clip-rule:evenodd;fill:#252644;}
	.st1{fill-rule:evenodd;clip-rule:evenodd;fill:#00E4A1;}
</style>
<g>
	<path id="XMLID_4_" class="st0" d="M612.2,0L410.9,551c-6.3,17.3-26.4,31.3-44.8,31.3H246.8l204-551C457.2,14,477.3,0,495.7,0
		H612.2z"/>
	<path id="XMLID_2_" class="st1" d="M579,264.6L685.3,551c6.4,17.3,26.6,31.3,45,31.3h121.4L742.2,295.8
		c-6.6-17.2-26.8-31.2-45.3-31.2H579z"/>
	<path id="XMLID_1_" class="st0" d="M365.4,0L164.1,551c-6.3,17.3-26.4,31.3-44.8,31.3H0l204-551C210.4,14,230.5,0,248.9,0H365.4z"
		/>
</g>
</svg>
